<svg xmlns="http://www.w3.org/2000/svg" width="711.315" height="517.689" viewBox="0 0 711.315 517.689">
  <g id="itinerant" transform="translate(0.96 0.959)">
    <g id="Component_14_1" data-name="Component 14 – 1">
      <g id="Rectangle_36" data-name="Rectangle 36" transform="matrix(0.875, -0.485, 0.485, 0.875, 0, 337.47)" fill="#fff" stroke="#07054e" stroke-width="1">
        <rect width="130" height="130" stroke="none"/>
        <rect x="0.5" y="0.5" width="129" height="129" fill="none"/>
      </g>
      <g id="Rectangle_37" data-name="Rectangle 37" transform="matrix(0.875, -0.485, 0.485, 0.875, 209.879, 252.003)" fill="#fff" stroke="#07054e" stroke-width="1">
        <rect width="130" height="130" stroke="none"/>
        <rect x="0.5" y="0.5" width="129" height="129" fill="none"/>
      </g>
      <g id="Rectangle_38" data-name="Rectangle 38" transform="matrix(0.875, -0.485, 0.485, 0.875, 175.756, 386.396)" fill="#fff" stroke="#07054e" stroke-width="1">
        <rect width="130" height="130" stroke="none"/>
        <rect x="0.5" y="0.5" width="129" height="129" fill="none"/>
      </g>
      <g id="Rectangle_39" data-name="Rectangle 39" transform="matrix(0.875, -0.485, 0.485, 0.875, 87.393, 361.059)" fill="#fff" stroke="#07054e" stroke-width="1">
        <rect width="130" height="130" stroke="none"/>
        <rect x="0.5" y="0.5" width="129" height="129" fill="none"/>
      </g>
      <g id="Rectangle_40" data-name="Rectangle 40" transform="matrix(0.875, -0.485, 0.485, 0.875, 263.205, 148.126)" fill="#fff" stroke="#07054e" stroke-width="1">
        <rect width="130" height="130" stroke="none"/>
        <rect x="0.5" y="0.5" width="129" height="129" fill="none"/>
      </g>
      <g id="Rectangle_41" data-name="Rectangle 41" transform="matrix(0.875, -0.485, 0.485, 0.875, 384.859, 198.458)" fill="#fff" stroke="#07054e" stroke-width="1">
        <rect width="130" height="130" stroke="none"/>
        <rect x="0.5" y="0.5" width="129" height="129" fill="none"/>
      </g>
      <g id="Rectangle_43" data-name="Rectangle 43" transform="matrix(0.875, -0.485, 0.485, 0.875, 491.559, 244.501)" fill="#fff" stroke="#07054e" stroke-width="1">
        <rect width="130" height="130" stroke="none"/>
        <rect x="0.5" y="0.5" width="129" height="129" fill="none"/>
      </g>
      <g id="Rectangle_44" data-name="Rectangle 44" transform="matrix(0.875, -0.485, 0.485, 0.875, 533.63, 128.57)" fill="#fff" stroke="#07054e" stroke-width="1">
        <rect width="130" height="130" stroke="none"/>
        <rect x="0.5" y="0.5" width="129" height="129" fill="none"/>
      </g>
      <path id="Path_21" data-name="Path 21" d="M-1294,2464l192.279,190.064,67.013-59.994,63.238-103.026,82.542,35.628,72.406,94,89.866,46.678,128.744-124.811" transform="matrix(0.875, -0.485, 0.485, 0.875, -62.813, -2444.936)" fill="none" stroke="#07054e" stroke-width="2"/>
    </g>
    <path id="Icon_awesome-flag-checkered" data-name="Icon awesome-flag-checkered" d="M14.64,12.574v4.509c1.562.391,2.951,1.033,4.405,1.477V14.044c-1.556-.384-2.957-1.026-4.405-1.47ZM28.006,4.43a16.2,16.2,0,0,1-7,2.112c-3.2,0-5.854-2.3-9.888-2.3a10.646,10.646,0,0,0-4.07.795A4.071,4.071,0,0,0,7.26,3.469,3.553,3.553,0,0,0,4.052,0,3.527,3.527,0,0,0,.563,3.708,3.824,3.824,0,0,0,2,6.747V32.312A1.515,1.515,0,0,0,3.436,33.9h.958A1.515,1.515,0,0,0,5.83,32.312V26.062A15.319,15.319,0,0,1,12.677,24.6c3.208,0,5.854,2.3,9.888,2.3A11.741,11.741,0,0,0,29.9,24.194a2.185,2.185,0,0,0,.826-1.748V6.35A1.933,1.933,0,0,0,28.006,4.43ZM10.235,21.553a17.336,17.336,0,0,0-4.405,1.1V17.984a15.767,15.767,0,0,1,4.405-1.152Zm17.621-8.906a17.828,17.828,0,0,1-4.405,1.583v4.708a10.45,10.45,0,0,0,4.405-1.722v4.668a9.11,9.11,0,0,1-4.405,1.794V18.937a9.194,9.194,0,0,1-4.405-.371v4.463a32.4,32.4,0,0,0-4.405-1.41V17.083a12.059,12.059,0,0,0-4.405-.252V12.2A19.574,19.574,0,0,0,5.83,13.58V8.912a15.921,15.921,0,0,1,4.405-1.457V12.2a9.246,9.246,0,0,1,4.405.377V8.111a31.614,31.614,0,0,0,4.405,1.41V14.05a10.334,10.334,0,0,0,4.405.179V9.468a19.711,19.711,0,0,0,4.405-1.49Z" transform="translate(644.039 36.685)" fill="#07054e"/>
  </g>
</svg>
