<svg id="little-grill-black" xmlns="http://www.w3.org/2000/svg" xmlns:xlink="http://www.w3.org/1999/xlink" width="607.478" height="551.729" viewBox="0 0 607.478 551.729">
  <defs>
    <clipPath id="clip-path">
      <rect width="494" height="384" fill="none"/>
    </clipPath>
  </defs>
  <g id="Component_11_4" data-name="Component 11 – 4">
    <g id="Component_5_3" data-name="Component 5 – 3">
      <g id="Repeat_Grid_1" data-name="Repeat Grid 1" transform="matrix(0.914, 0.407, -0.407, 0.914, 156.187, 0)" clip-path="url(#clip-path)">
        <g transform="translate(-348 -626)">
          <g id="Rectangle_10" data-name="Rectangle 10" transform="translate(348 626)" fill="none" stroke="rgba(254,255,255,0.4)" stroke-width="1">
            <rect width="50" height="50" stroke="none"/>
            <rect x="0.5" y="0.5" width="49" height="49" fill="none"/>
          </g>
          <g id="Path_8" data-name="Path 8" transform="translate(348 681)" fill="none">
            <path d="M0,0H50V50H0Z" stroke="none"/>
            <path d="M 1 1 L 1 49 L 49 49 L 49 1 L 1 1 M 0 0 L 50 0 L 50 50 L 0 50 L 0 0 Z" stroke="none" fill="rgba(254,255,255,0.4)"/>
          </g>
        </g>
        <g transform="translate(-293 -626)">
          <g id="Rectangle_10-2" data-name="Rectangle 10" transform="translate(348 626)" fill="none" stroke="rgba(254,255,255,0.4)" stroke-width="1">
            <rect width="50" height="50" stroke="none"/>
            <rect x="0.5" y="0.5" width="49" height="49" fill="none"/>
          </g>
          <g id="Path_8-2" data-name="Path 8" transform="translate(348 681)" fill="none">
            <path d="M0,0H50V50H0Z" stroke="none"/>
            <path d="M 1 1 L 1 49 L 49 49 L 49 1 L 1 1 M 0 0 L 50 0 L 50 50 L 0 50 L 0 0 Z" stroke="none" fill="rgba(254,255,255,0.4)"/>
          </g>
        </g>
        <g transform="translate(-238 -626)">
          <g id="Rectangle_10-3" data-name="Rectangle 10" transform="translate(348 626)" fill="none" stroke="rgba(254,255,255,0.4)" stroke-width="1">
            <rect width="50" height="50" stroke="none"/>
            <rect x="0.5" y="0.5" width="49" height="49" fill="none"/>
          </g>
          <g id="Path_8-3" data-name="Path 8" transform="translate(348 681)" fill="none">
            <path d="M0,0H50V50H0Z" stroke="none"/>
            <path d="M 1 1 L 1 49 L 49 49 L 49 1 L 1 1 M 0 0 L 50 0 L 50 50 L 0 50 L 0 0 Z" stroke="none" fill="rgba(254,255,255,0.4)"/>
          </g>
        </g>
        <g transform="translate(-183 -626)">
          <g id="Rectangle_10-4" data-name="Rectangle 10" transform="translate(348 626)" fill="none" stroke="rgba(254,255,255,0.4)" stroke-width="1">
            <rect width="50" height="50" stroke="none"/>
            <rect x="0.5" y="0.5" width="49" height="49" fill="none"/>
          </g>
          <g id="Path_8-4" data-name="Path 8" transform="translate(348 681)" fill="none">
            <path d="M0,0H50V50H0Z" stroke="none"/>
            <path d="M 1 1 L 1 49 L 49 49 L 49 1 L 1 1 M 0 0 L 50 0 L 50 50 L 0 50 L 0 0 Z" stroke="none" fill="rgba(254,255,255,0.4)"/>
          </g>
        </g>
        <g transform="translate(-128 -626)">
          <g id="Rectangle_10-5" data-name="Rectangle 10" transform="translate(348 626)" fill="none" stroke="rgba(254,255,255,0.4)" stroke-width="1">
            <rect width="50" height="50" stroke="none"/>
            <rect x="0.5" y="0.5" width="49" height="49" fill="none"/>
          </g>
          <g id="Path_8-5" data-name="Path 8" transform="translate(348 681)" fill="none">
            <path d="M0,0H50V50H0Z" stroke="none"/>
            <path d="M 1 1 L 1 49 L 49 49 L 49 1 L 1 1 M 0 0 L 50 0 L 50 50 L 0 50 L 0 0 Z" stroke="none" fill="rgba(254,255,255,0.4)"/>
          </g>
        </g>
        <g transform="translate(-73 -626)">
          <g id="Rectangle_10-6" data-name="Rectangle 10" transform="translate(348 626)" fill="none" stroke="rgba(254,255,255,0.4)" stroke-width="1">
            <rect width="50" height="50" stroke="none"/>
            <rect x="0.5" y="0.5" width="49" height="49" fill="none"/>
          </g>
          <g id="Path_8-6" data-name="Path 8" transform="translate(348 681)" fill="none">
            <path d="M0,0H50V50H0Z" stroke="none"/>
            <path d="M 1 1 L 1 49 L 49 49 L 49 1 L 1 1 M 0 0 L 50 0 L 50 50 L 0 50 L 0 0 Z" stroke="none" fill="rgba(254,255,255,0.4)"/>
          </g>
        </g>
        <g transform="translate(-18 -626)">
          <g id="Rectangle_10-7" data-name="Rectangle 10" transform="translate(348 626)" fill="none" stroke="rgba(254,255,255,0.4)" stroke-width="1">
            <rect width="50" height="50" stroke="none"/>
            <rect x="0.5" y="0.5" width="49" height="49" fill="none"/>
          </g>
          <g id="Path_8-7" data-name="Path 8" transform="translate(348 681)" fill="none">
            <path d="M0,0H50V50H0Z" stroke="none"/>
            <path d="M 1 1 L 1 49 L 49 49 L 49 1 L 1 1 M 0 0 L 50 0 L 50 50 L 0 50 L 0 0 Z" stroke="none" fill="rgba(254,255,255,0.4)"/>
          </g>
        </g>
        <g transform="translate(37 -626)">
          <g id="Rectangle_10-8" data-name="Rectangle 10" transform="translate(348 626)" fill="none" stroke="rgba(254,255,255,0.4)" stroke-width="1">
            <rect width="50" height="50" stroke="none"/>
            <rect x="0.5" y="0.5" width="49" height="49" fill="none"/>
          </g>
          <g id="Path_8-8" data-name="Path 8" transform="translate(348 681)" fill="none">
            <path d="M0,0H50V50H0Z" stroke="none"/>
            <path d="M 1 1 L 1 49 L 49 49 L 49 1 L 1 1 M 0 0 L 50 0 L 50 50 L 0 50 L 0 0 Z" stroke="none" fill="rgba(254,255,255,0.4)"/>
          </g>
        </g>
        <g transform="translate(92 -626)">
          <g id="Rectangle_10-9" data-name="Rectangle 10" transform="translate(348 626)" fill="none" stroke="rgba(254,255,255,0.4)" stroke-width="1">
            <rect width="50" height="50" stroke="none"/>
            <rect x="0.5" y="0.5" width="49" height="49" fill="none"/>
          </g>
          <g id="Path_8-9" data-name="Path 8" transform="translate(348 681)" fill="none">
            <path d="M0,0H50V50H0Z" stroke="none"/>
            <path d="M 1 1 L 1 49 L 49 49 L 49 1 L 1 1 M 0 0 L 50 0 L 50 50 L 0 50 L 0 0 Z" stroke="none" fill="rgba(254,255,255,0.4)"/>
          </g>
        </g>
        <g transform="translate(-348 -516)">
          <g id="Rectangle_10-10" data-name="Rectangle 10" transform="translate(348 626)" fill="none" stroke="rgba(254,255,255,0.4)" stroke-width="1">
            <rect width="50" height="50" stroke="none"/>
            <rect x="0.5" y="0.5" width="49" height="49" fill="none"/>
          </g>
          <g id="Path_8-10" data-name="Path 8" transform="translate(348 681)" fill="none">
            <path d="M0,0H50V50H0Z" stroke="none"/>
            <path d="M 1 1 L 1 49 L 49 49 L 49 1 L 1 1 M 0 0 L 50 0 L 50 50 L 0 50 L 0 0 Z" stroke="none" fill="rgba(254,255,255,0.4)"/>
          </g>
        </g>
        <g transform="translate(-293 -516)">
          <g id="Rectangle_10-11" data-name="Rectangle 10" transform="translate(348 626)" fill="none" stroke="rgba(254,255,255,0.4)" stroke-width="1">
            <rect width="50" height="50" stroke="none"/>
            <rect x="0.5" y="0.5" width="49" height="49" fill="none"/>
          </g>
          <g id="Path_8-11" data-name="Path 8" transform="translate(348 681)" fill="none">
            <path d="M0,0H50V50H0Z" stroke="none"/>
            <path d="M 1 1 L 1 49 L 49 49 L 49 1 L 1 1 M 0 0 L 50 0 L 50 50 L 0 50 L 0 0 Z" stroke="none" fill="rgba(254,255,255,0.4)"/>
          </g>
        </g>
        <g transform="translate(-238 -516)">
          <g id="Rectangle_10-12" data-name="Rectangle 10" transform="translate(348 626)" fill="none" stroke="rgba(254,255,255,0.4)" stroke-width="1">
            <rect width="50" height="50" stroke="none"/>
            <rect x="0.5" y="0.5" width="49" height="49" fill="none"/>
          </g>
          <g id="Path_8-12" data-name="Path 8" transform="translate(348 681)" fill="none">
            <path d="M0,0H50V50H0Z" stroke="none"/>
            <path d="M 1 1 L 1 49 L 49 49 L 49 1 L 1 1 M 0 0 L 50 0 L 50 50 L 0 50 L 0 0 Z" stroke="none" fill="rgba(254,255,255,0.4)"/>
          </g>
        </g>
        <g transform="translate(-183 -516)">
          <g id="Rectangle_10-13" data-name="Rectangle 10" transform="translate(348 626)" fill="none" stroke="rgba(254,255,255,0.4)" stroke-width="1">
            <rect width="50" height="50" stroke="none"/>
            <rect x="0.5" y="0.5" width="49" height="49" fill="none"/>
          </g>
          <g id="Path_8-13" data-name="Path 8" transform="translate(348 681)" fill="none">
            <path d="M0,0H50V50H0Z" stroke="none"/>
            <path d="M 1 1 L 1 49 L 49 49 L 49 1 L 1 1 M 0 0 L 50 0 L 50 50 L 0 50 L 0 0 Z" stroke="none" fill="rgba(254,255,255,0.4)"/>
          </g>
        </g>
        <g transform="translate(-128 -516)">
          <g id="Rectangle_10-14" data-name="Rectangle 10" transform="translate(348 626)" fill="none" stroke="rgba(254,255,255,0.4)" stroke-width="1">
            <rect width="50" height="50" stroke="none"/>
            <rect x="0.5" y="0.5" width="49" height="49" fill="none"/>
          </g>
          <g id="Path_8-14" data-name="Path 8" transform="translate(348 681)" fill="none">
            <path d="M0,0H50V50H0Z" stroke="none"/>
            <path d="M 1 1 L 1 49 L 49 49 L 49 1 L 1 1 M 0 0 L 50 0 L 50 50 L 0 50 L 0 0 Z" stroke="none" fill="rgba(254,255,255,0.4)"/>
          </g>
        </g>
        <g transform="translate(-73 -516)">
          <g id="Rectangle_10-15" data-name="Rectangle 10" transform="translate(348 626)" fill="none" stroke="rgba(254,255,255,0.4)" stroke-width="1">
            <rect width="50" height="50" stroke="none"/>
            <rect x="0.5" y="0.5" width="49" height="49" fill="none"/>
          </g>
          <g id="Path_8-15" data-name="Path 8" transform="translate(348 681)" fill="none">
            <path d="M0,0H50V50H0Z" stroke="none"/>
            <path d="M 1 1 L 1 49 L 49 49 L 49 1 L 1 1 M 0 0 L 50 0 L 50 50 L 0 50 L 0 0 Z" stroke="none" fill="rgba(254,255,255,0.4)"/>
          </g>
        </g>
        <g transform="translate(-18 -516)">
          <g id="Rectangle_10-16" data-name="Rectangle 10" transform="translate(348 626)" fill="none" stroke="rgba(254,255,255,0.4)" stroke-width="1">
            <rect width="50" height="50" stroke="none"/>
            <rect x="0.5" y="0.5" width="49" height="49" fill="none"/>
          </g>
          <g id="Path_8-16" data-name="Path 8" transform="translate(348 681)" fill="none">
            <path d="M0,0H50V50H0Z" stroke="none"/>
            <path d="M 1 1 L 1 49 L 49 49 L 49 1 L 1 1 M 0 0 L 50 0 L 50 50 L 0 50 L 0 0 Z" stroke="none" fill="rgba(254,255,255,0.4)"/>
          </g>
        </g>
        <g transform="translate(37 -516)">
          <g id="Rectangle_10-17" data-name="Rectangle 10" transform="translate(348 626)" fill="none" stroke="rgba(254,255,255,0.4)" stroke-width="1">
            <rect width="50" height="50" stroke="none"/>
            <rect x="0.5" y="0.5" width="49" height="49" fill="none"/>
          </g>
          <g id="Path_8-17" data-name="Path 8" transform="translate(348 681)" fill="none">
            <path d="M0,0H50V50H0Z" stroke="none"/>
            <path d="M 1 1 L 1 49 L 49 49 L 49 1 L 1 1 M 0 0 L 50 0 L 50 50 L 0 50 L 0 0 Z" stroke="none" fill="rgba(254,255,255,0.4)"/>
          </g>
        </g>
        <g transform="translate(92 -516)">
          <g id="Rectangle_10-18" data-name="Rectangle 10" transform="translate(348 626)" fill="none" stroke="rgba(254,255,255,0.4)" stroke-width="1">
            <rect width="50" height="50" stroke="none"/>
            <rect x="0.5" y="0.5" width="49" height="49" fill="none"/>
          </g>
          <g id="Path_8-18" data-name="Path 8" transform="translate(348 681)" fill="none">
            <path d="M0,0H50V50H0Z" stroke="none"/>
            <path d="M 1 1 L 1 49 L 49 49 L 49 1 L 1 1 M 0 0 L 50 0 L 50 50 L 0 50 L 0 0 Z" stroke="none" fill="rgba(254,255,255,0.4)"/>
          </g>
        </g>
        <g transform="translate(-348 -406)">
          <g id="Rectangle_10-19" data-name="Rectangle 10" transform="translate(348 626)" fill="none" stroke="rgba(254,255,255,0.4)" stroke-width="1">
            <rect width="50" height="50" stroke="none"/>
            <rect x="0.5" y="0.5" width="49" height="49" fill="none"/>
          </g>
          <g id="Path_8-19" data-name="Path 8" transform="translate(348 681)" fill="none">
            <path d="M0,0H50V50H0Z" stroke="none"/>
            <path d="M 1 1 L 1 49 L 49 49 L 49 1 L 1 1 M 0 0 L 50 0 L 50 50 L 0 50 L 0 0 Z" stroke="none" fill="rgba(254,255,255,0.4)"/>
          </g>
        </g>
        <g transform="translate(-293 -406)">
          <g id="Rectangle_10-20" data-name="Rectangle 10" transform="translate(348 626)" fill="none" stroke="rgba(254,255,255,0.4)" stroke-width="1">
            <rect width="50" height="50" stroke="none"/>
            <rect x="0.5" y="0.5" width="49" height="49" fill="none"/>
          </g>
          <g id="Path_8-20" data-name="Path 8" transform="translate(348 681)" fill="none">
            <path d="M0,0H50V50H0Z" stroke="none"/>
            <path d="M 1 1 L 1 49 L 49 49 L 49 1 L 1 1 M 0 0 L 50 0 L 50 50 L 0 50 L 0 0 Z" stroke="none" fill="rgba(254,255,255,0.4)"/>
          </g>
        </g>
        <g transform="translate(-238 -406)">
          <g id="Rectangle_10-21" data-name="Rectangle 10" transform="translate(348 626)" fill="none" stroke="rgba(254,255,255,0.4)" stroke-width="1">
            <rect width="50" height="50" stroke="none"/>
            <rect x="0.5" y="0.5" width="49" height="49" fill="none"/>
          </g>
          <g id="Path_8-21" data-name="Path 8" transform="translate(348 681)" fill="none">
            <path d="M0,0H50V50H0Z" stroke="none"/>
            <path d="M 1 1 L 1 49 L 49 49 L 49 1 L 1 1 M 0 0 L 50 0 L 50 50 L 0 50 L 0 0 Z" stroke="none" fill="rgba(254,255,255,0.4)"/>
          </g>
        </g>
        <g transform="translate(-183 -406)">
          <g id="Rectangle_10-22" data-name="Rectangle 10" transform="translate(348 626)" fill="none" stroke="rgba(254,255,255,0.4)" stroke-width="1">
            <rect width="50" height="50" stroke="none"/>
            <rect x="0.5" y="0.5" width="49" height="49" fill="none"/>
          </g>
          <g id="Path_8-22" data-name="Path 8" transform="translate(348 681)" fill="none">
            <path d="M0,0H50V50H0Z" stroke="none"/>
            <path d="M 1 1 L 1 49 L 49 49 L 49 1 L 1 1 M 0 0 L 50 0 L 50 50 L 0 50 L 0 0 Z" stroke="none" fill="rgba(254,255,255,0.4)"/>
          </g>
        </g>
        <g transform="translate(-128 -406)">
          <g id="Rectangle_10-23" data-name="Rectangle 10" transform="translate(348 626)" fill="none" stroke="rgba(254,255,255,0.4)" stroke-width="1">
            <rect width="50" height="50" stroke="none"/>
            <rect x="0.5" y="0.5" width="49" height="49" fill="none"/>
          </g>
          <g id="Path_8-23" data-name="Path 8" transform="translate(348 681)" fill="none">
            <path d="M0,0H50V50H0Z" stroke="none"/>
            <path d="M 1 1 L 1 49 L 49 49 L 49 1 L 1 1 M 0 0 L 50 0 L 50 50 L 0 50 L 0 0 Z" stroke="none" fill="rgba(254,255,255,0.4)"/>
          </g>
        </g>
        <g transform="translate(-73 -406)">
          <g id="Rectangle_10-24" data-name="Rectangle 10" transform="translate(348 626)" fill="none" stroke="rgba(254,255,255,0.4)" stroke-width="1">
            <rect width="50" height="50" stroke="none"/>
            <rect x="0.5" y="0.5" width="49" height="49" fill="none"/>
          </g>
          <g id="Path_8-24" data-name="Path 8" transform="translate(348 681)" fill="none">
            <path d="M0,0H50V50H0Z" stroke="none"/>
            <path d="M 1 1 L 1 49 L 49 49 L 49 1 L 1 1 M 0 0 L 50 0 L 50 50 L 0 50 L 0 0 Z" stroke="none" fill="rgba(254,255,255,0.4)"/>
          </g>
        </g>
        <g transform="translate(-18 -406)">
          <g id="Rectangle_10-25" data-name="Rectangle 10" transform="translate(348 626)" fill="none" stroke="rgba(254,255,255,0.4)" stroke-width="1">
            <rect width="50" height="50" stroke="none"/>
            <rect x="0.5" y="0.5" width="49" height="49" fill="none"/>
          </g>
          <g id="Path_8-25" data-name="Path 8" transform="translate(348 681)" fill="none">
            <path d="M0,0H50V50H0Z" stroke="none"/>
            <path d="M 1 1 L 1 49 L 49 49 L 49 1 L 1 1 M 0 0 L 50 0 L 50 50 L 0 50 L 0 0 Z" stroke="none" fill="rgba(254,255,255,0.4)"/>
          </g>
        </g>
        <g transform="translate(37 -406)">
          <g id="Rectangle_10-26" data-name="Rectangle 10" transform="translate(348 626)" fill="none" stroke="rgba(254,255,255,0.4)" stroke-width="1">
            <rect width="50" height="50" stroke="none"/>
            <rect x="0.5" y="0.5" width="49" height="49" fill="none"/>
          </g>
          <g id="Path_8-26" data-name="Path 8" transform="translate(348 681)" fill="none">
            <path d="M0,0H50V50H0Z" stroke="none"/>
            <path d="M 1 1 L 1 49 L 49 49 L 49 1 L 1 1 M 0 0 L 50 0 L 50 50 L 0 50 L 0 0 Z" stroke="none" fill="rgba(254,255,255,0.4)"/>
          </g>
        </g>
        <g transform="translate(92 -406)">
          <g id="Rectangle_10-27" data-name="Rectangle 10" transform="translate(348 626)" fill="none" stroke="rgba(254,255,255,0.4)" stroke-width="1">
            <rect width="50" height="50" stroke="none"/>
            <rect x="0.5" y="0.5" width="49" height="49" fill="none"/>
          </g>
          <g id="Path_8-27" data-name="Path 8" transform="translate(348 681)" fill="none">
            <path d="M0,0H50V50H0Z" stroke="none"/>
            <path d="M 1 1 L 1 49 L 49 49 L 49 1 L 1 1 M 0 0 L 50 0 L 50 50 L 0 50 L 0 0 Z" stroke="none" fill="rgba(254,255,255,0.4)"/>
          </g>
        </g>
        <g transform="translate(-348 -296)">
          <g id="Rectangle_10-28" data-name="Rectangle 10" transform="translate(348 626)" fill="none" stroke="rgba(254,255,255,0.4)" stroke-width="1">
            <rect width="50" height="50" stroke="none"/>
            <rect x="0.5" y="0.5" width="49" height="49" fill="none"/>
          </g>
          <g id="Path_8-28" data-name="Path 8" transform="translate(348 681)" fill="none">
            <path d="M0,0H50V50H0Z" stroke="none"/>
            <path d="M 1 1 L 1 49 L 49 49 L 49 1 L 1 1 M 0 0 L 50 0 L 50 50 L 0 50 L 0 0 Z" stroke="none" fill="rgba(254,255,255,0.4)"/>
          </g>
        </g>
        <g transform="translate(-293 -296)">
          <g id="Rectangle_10-29" data-name="Rectangle 10" transform="translate(348 626)" fill="none" stroke="rgba(254,255,255,0.4)" stroke-width="1">
            <rect width="50" height="50" stroke="none"/>
            <rect x="0.5" y="0.5" width="49" height="49" fill="none"/>
          </g>
          <g id="Path_8-29" data-name="Path 8" transform="translate(348 681)" fill="none">
            <path d="M0,0H50V50H0Z" stroke="none"/>
            <path d="M 1 1 L 1 49 L 49 49 L 49 1 L 1 1 M 0 0 L 50 0 L 50 50 L 0 50 L 0 0 Z" stroke="none" fill="rgba(254,255,255,0.4)"/>
          </g>
        </g>
        <g transform="translate(-238 -296)">
          <g id="Rectangle_10-30" data-name="Rectangle 10" transform="translate(348 626)" fill="none" stroke="rgba(254,255,255,0.4)" stroke-width="1">
            <rect width="50" height="50" stroke="none"/>
            <rect x="0.5" y="0.5" width="49" height="49" fill="none"/>
          </g>
          <g id="Path_8-30" data-name="Path 8" transform="translate(348 681)" fill="none">
            <path d="M0,0H50V50H0Z" stroke="none"/>
            <path d="M 1 1 L 1 49 L 49 49 L 49 1 L 1 1 M 0 0 L 50 0 L 50 50 L 0 50 L 0 0 Z" stroke="none" fill="rgba(254,255,255,0.4)"/>
          </g>
        </g>
        <g transform="translate(-183 -296)">
          <g id="Rectangle_10-31" data-name="Rectangle 10" transform="translate(348 626)" fill="none" stroke="rgba(254,255,255,0.4)" stroke-width="1">
            <rect width="50" height="50" stroke="none"/>
            <rect x="0.5" y="0.5" width="49" height="49" fill="none"/>
          </g>
          <g id="Path_8-31" data-name="Path 8" transform="translate(348 681)" fill="none">
            <path d="M0,0H50V50H0Z" stroke="none"/>
            <path d="M 1 1 L 1 49 L 49 49 L 49 1 L 1 1 M 0 0 L 50 0 L 50 50 L 0 50 L 0 0 Z" stroke="none" fill="rgba(254,255,255,0.4)"/>
          </g>
        </g>
        <g transform="translate(-128 -296)">
          <g id="Rectangle_10-32" data-name="Rectangle 10" transform="translate(348 626)" fill="none" stroke="rgba(254,255,255,0.4)" stroke-width="1">
            <rect width="50" height="50" stroke="none"/>
            <rect x="0.5" y="0.5" width="49" height="49" fill="none"/>
          </g>
          <g id="Path_8-32" data-name="Path 8" transform="translate(348 681)" fill="none">
            <path d="M0,0H50V50H0Z" stroke="none"/>
            <path d="M 1 1 L 1 49 L 49 49 L 49 1 L 1 1 M 0 0 L 50 0 L 50 50 L 0 50 L 0 0 Z" stroke="none" fill="rgba(254,255,255,0.4)"/>
          </g>
        </g>
        <g transform="translate(-73 -296)">
          <g id="Rectangle_10-33" data-name="Rectangle 10" transform="translate(348 626)" fill="none" stroke="rgba(254,255,255,0.4)" stroke-width="1">
            <rect width="50" height="50" stroke="none"/>
            <rect x="0.5" y="0.5" width="49" height="49" fill="none"/>
          </g>
          <g id="Path_8-33" data-name="Path 8" transform="translate(348 681)" fill="none">
            <path d="M0,0H50V50H0Z" stroke="none"/>
            <path d="M 1 1 L 1 49 L 49 49 L 49 1 L 1 1 M 0 0 L 50 0 L 50 50 L 0 50 L 0 0 Z" stroke="none" fill="rgba(254,255,255,0.4)"/>
          </g>
        </g>
        <g transform="translate(-18 -296)">
          <g id="Rectangle_10-34" data-name="Rectangle 10" transform="translate(348 626)" fill="none" stroke="rgba(254,255,255,0.4)" stroke-width="1">
            <rect width="50" height="50" stroke="none"/>
            <rect x="0.5" y="0.5" width="49" height="49" fill="none"/>
          </g>
          <g id="Path_8-34" data-name="Path 8" transform="translate(348 681)" fill="none">
            <path d="M0,0H50V50H0Z" stroke="none"/>
            <path d="M 1 1 L 1 49 L 49 49 L 49 1 L 1 1 M 0 0 L 50 0 L 50 50 L 0 50 L 0 0 Z" stroke="none" fill="rgba(254,255,255,0.4)"/>
          </g>
        </g>
        <g transform="translate(37 -296)">
          <g id="Rectangle_10-35" data-name="Rectangle 10" transform="translate(348 626)" fill="none" stroke="rgba(254,255,255,0.4)" stroke-width="1">
            <rect width="50" height="50" stroke="none"/>
            <rect x="0.5" y="0.5" width="49" height="49" fill="none"/>
          </g>
          <g id="Path_8-35" data-name="Path 8" transform="translate(348 681)" fill="none">
            <path d="M0,0H50V50H0Z" stroke="none"/>
            <path d="M 1 1 L 1 49 L 49 49 L 49 1 L 1 1 M 0 0 L 50 0 L 50 50 L 0 50 L 0 0 Z" stroke="none" fill="rgba(254,255,255,0.4)"/>
          </g>
        </g>
        <g transform="translate(92 -296)">
          <g id="Rectangle_10-36" data-name="Rectangle 10" transform="translate(348 626)" fill="none" stroke="rgba(254,255,255,0.4)" stroke-width="1">
            <rect width="50" height="50" stroke="none"/>
            <rect x="0.5" y="0.5" width="49" height="49" fill="none"/>
          </g>
          <g id="Path_8-36" data-name="Path 8" transform="translate(348 681)" fill="none">
            <path d="M0,0H50V50H0Z" stroke="none"/>
            <path d="M 1 1 L 1 49 L 49 49 L 49 1 L 1 1 M 0 0 L 50 0 L 50 50 L 0 50 L 0 0 Z" stroke="none" fill="rgba(254,255,255,0.4)"/>
          </g>
        </g>
      </g>
    </g>
    <path id="Path_19" data-name="Path 19" d="M-721.145,1588.5l-66.31,148.7-251.151-112.15-22.363,50.289,150.313,67.112-21.905,50.39,100.15,44.556-22.11,50.342-301.652-134.252-21.5,48.2" transform="translate(1227 -1433)" fill="none" stroke="rgba(255,255,255,0.72)" stroke-width="6"/>
  </g>
  <rect id="Rectangle_47" data-name="Rectangle 47" width="49" height="49" transform="translate(89.736 151.079) rotate(24)" fill="rgba(255,255,255,0.41)"/>
  <rect id="Rectangle_48" data-name="Rectangle 48" width="49" height="49" transform="translate(184.736 73.079) rotate(24)" fill="rgba(255,255,255,0.41)"/>
  <rect id="Rectangle_49" data-name="Rectangle 49" width="49" height="49" transform="translate(356.736 90.079) rotate(24)" fill="rgba(255,255,255,0.41)"/>
  <rect id="Rectangle_50" data-name="Rectangle 50" width="49" height="49" transform="translate(490.736 330.079) rotate(24)" fill="rgba(255,255,255,0.41)"/>
  <rect id="Rectangle_51" data-name="Rectangle 51" width="49" height="49" transform="translate(423.736 481.079) rotate(24)" fill="rgba(255,255,255,0.41)"/>
  <rect id="Rectangle_52" data-name="Rectangle 52" width="49" height="49" transform="translate(513.736 280.079) rotate(24)" fill="rgba(255,255,255,0.41)"/>
  <rect id="Rectangle_53" data-name="Rectangle 53" width="49" height="49" transform="translate(558.736 180.079) rotate(24)" fill="rgba(255,255,255,0.41)"/>
</svg>
