<svg id="optimisation" xmlns="http://www.w3.org/2000/svg" width="460.149" height="381.43" viewBox="0 0 460.149 381.43">
  <g id="Component_12_3" data-name="Component 12 – 3">
    <g id="Rectangle_18" data-name="Rectangle 18" transform="matrix(0.819, -0.574, 0.574, 0.819, 37, 212.401)" fill="none" stroke="#07054e" stroke-width="1">
      <rect width="115" height="108" stroke="none"/>
      <rect x="0.5" y="0.5" width="114" height="107" fill="none"/>
    </g>
    <g id="Rectangle_19" data-name="Rectangle 19" transform="matrix(0.819, -0.574, 0.574, 0.819, 200.378, 292.961)" fill="none" stroke="#07054e" stroke-width="1">
      <rect width="115" height="108" stroke="none"/>
      <rect x="0.5" y="0.5" width="114" height="107" fill="none"/>
    </g>
    <g id="Rectangle_20" data-name="Rectangle 20" transform="matrix(0.819, -0.574, 0.574, 0.819, 144.141, 72.961)" fill="none" stroke="#07054e" stroke-width="1">
      <rect width="115" height="108" stroke="none"/>
      <rect x="0.5" y="0.5" width="114" height="107" fill="none"/>
    </g>
    <g id="Rectangle_21" data-name="Rectangle 21" transform="matrix(0.819, -0.574, 0.574, 0.819, 298, 159.938)" fill="none" stroke="#07054e" stroke-width="1">
      <rect width="115" height="108" stroke="none"/>
      <rect x="0.5" y="0.5" width="114" height="107" fill="none"/>
    </g>
    <path id="Icon_feather-check" data-name="Icon feather-check" d="M59.048,9,22.577,51.2,6,32.02" transform="translate(218.608 154.852)" fill="none" stroke="#000" stroke-linecap="round" stroke-linejoin="round" stroke-width="3"/>
    <g id="Rectangle_23" data-name="Rectangle 23" transform="matrix(0.819, -0.574, 0.574, 0.819, 107.214, 65.961)" fill="none" stroke="#07054e" stroke-width="1">
      <rect width="115" height="108" stroke="none"/>
      <rect x="0.5" y="0.5" width="114" height="107" fill="none"/>
    </g>
    <g id="Rectangle_26" data-name="Rectangle 26" transform="matrix(0.819, -0.574, 0.574, 0.819, 0, 207.985)" fill="none" stroke="#07054e" stroke-width="1">
      <rect width="115" height="108" stroke="none"/>
      <rect x="0.5" y="0.5" width="114" height="107" fill="none"/>
    </g>
    <g id="Rectangle_28" data-name="Rectangle 28" transform="matrix(0.819, -0.574, 0.574, 0.819, 163.303, 286.961)" fill="none" stroke="#07054e" stroke-width="1">
      <rect width="115" height="108" stroke="none"/>
      <rect x="0.5" y="0.5" width="114" height="107" fill="none"/>
    </g>
    <g id="Rectangle_31" data-name="Rectangle 31" transform="matrix(0.819, -0.574, 0.574, 0.819, 304, 123.374)" fill="none" stroke="#07054e" stroke-width="1">
      <rect width="115" height="108" stroke="none"/>
      <rect x="0.5" y="0.5" width="114" height="107" fill="none"/>
    </g>
  </g>
  <g id="Group_15" data-name="Group 15" transform="translate(-226.426 -2036.785)">
    <path id="Icon_material-subdirectory-arrow-left" data-name="Icon material-subdirectory-arrow-left" d="M16.5,24l2.13-2.13L13.245,16.5H27v15h3v-18H13.245L18.63,8.13,16.5,6l-9,9Z" transform="matrix(0.588, 0.809, -0.809, 0.588, 607.548, 2284.31)" fill="#07054e"/>
    <path id="Icon_material-subdirectory-arrow-left-2" data-name="Icon material-subdirectory-arrow-left" d="M16.5,24l2.13-2.13L13.245,16.5H27v15h3v-18H13.245L18.63,8.13,16.5,6l-9,9Z" transform="matrix(0.829, -0.559, 0.559, 0.829, 532.371, 2111.44)" fill="#07054e"/>
    <path id="Icon_material-subdirectory-arrow-left-3" data-name="Icon material-subdirectory-arrow-left" d="M16.5,24l2.13-2.13L13.245,16.5H27v15h3v-18H13.245L18.63,8.13,16.5,6l-9,9Z" transform="matrix(-0.616, -0.788, 0.788, -0.616, 306.168, 2180.819)" fill="#07054e"/>
    <path id="Icon_material-subdirectory-arrow-left-4" data-name="Icon material-subdirectory-arrow-left" d="M16.5,24l2.13-2.13L13.245,16.5H27v15h3v-18H13.245L18.63,8.13,16.5,6l-9,9Z" transform="matrix(-0.829, 0.559, -0.559, -0.829, 395.429, 2343.56)" fill="#07054e"/>
  </g>
</svg>
